<svg xmlns="http://www.w3.org/2000/svg" version="1.1" xmlns:xlink="http://www.w3.org/1999/xlink" xmlns:svgjs="http://svgjs.dev/svgjs" width="1000" height="623" viewBox="0 0 1000 623"><g transform="matrix(1,0,0,1,-0.6060606060606233,0.2522267206477409)"><svg viewBox="0 0 396 247" data-background-color="#ffffff" preserveAspectRatio="xMidYMid meet" height="623" width="1000" xmlns="http://www.w3.org/2000/svg" xmlns:xlink="http://www.w3.org/1999/xlink"><g id="tight-bounds" transform="matrix(1,0,0,1,0.2400000000000091,-0.09999999999999432)"><svg viewBox="0 0 395.52 247.2" height="247.2" width="395.52"><g><svg></svg></g><g><svg viewBox="0 0 395.52 247.2" height="247.2" width="395.52"><g><path xmlns="http://www.w3.org/2000/svg" d="M55.039 247.2l26.403-45.732h2.292l-25.194 43.638h278.44l-25.194-43.638 2.292 0 26.403 45.732zM197.76 0l26.403 45.732-2.291 0-24.112-41.762-24.112 41.762-2.291 0z" fill="#31c48d" fill-rule="nonzero" stroke="none" stroke-width="1" stroke-linecap="butt" stroke-linejoin="miter" stroke-miterlimit="10" stroke-dasharray="" stroke-dashoffset="0" font-family="none" font-weight="none" font-size="none" text-anchor="none" style="mix-blend-mode: normal" data-fill-palette-color="tertiary"></path></g><g transform="matrix(1,0,0,1,63.39233255162114,67.97999999999999)"><svg viewBox="0 0 268.7353348967577 111.24" height="111.24" width="268.7353348967577"><g><svg viewBox="0 0 268.7353348967577 111.24" height="111.24" width="268.7353348967577"><g><svg viewBox="0 0 395.52 163.7211006022075" height="111.24" width="268.7353348967577"><g transform="matrix(1,0,0,1,0,114.2447209112583)"><svg viewBox="0 0 395.52 49.47637969094923" height="49.47637969094923" width="395.52"><g id="textblocktransform"><svg viewBox="0 0 395.52 49.47637969094923" height="49.47637969094923" width="395.52" id="textblock"><g><svg viewBox="0 0 395.52 49.47637969094923" height="49.47637969094923" width="395.52"><g transform="matrix(1,0,0,1,0,0)"><svg width="395.52" viewBox="1.100000023841858 -33.349998474121094 271.7799987792969 34" height="49.47637969094923" data-palette-color="#31c48d"><path d="M13.3 0.45Q6.95 0.45 4.03-3.5 1.1-7.45 1.1-16.3 1.1-25.15 4.13-29.2 7.15-33.25 13.6-33.25L13.6-33.25Q18.7-33.25 22.8-31.85L22.8-31.85 21.9-27.4Q18.4-28.6 13.6-28.6L13.6-28.6Q9.65-28.6 8.03-25.75 6.4-22.9 6.4-16.55 6.4-10.2 8.13-7.28 9.85-4.35 13.3-4.35L13.3-4.35Q15.75-4.35 18.45-5L18.45-5 18.45-12.75 13.8-12.75 13.8-17.35 23.45-17.35 23.45-1.25Q18.7 0.45 13.3 0.45L13.3 0.45ZM35.8-4.3L35.8-4.3Q37.2-4.3 38.9-4.95 40.6-5.6 41.6-6.4L41.6-6.4 41.6-9.9Q38.6-10.15 36.7-10.15L36.7-10.15Q32.55-10.15 32.55-7.05L32.55-7.05Q32.55-4.3 35.8-4.3ZM35 0.55L35 0.55Q27 0.55 27-7.05L27-7.05Q27-11.1 29.57-12.73 32.15-14.35 36.7-14.35L36.7-14.35Q38.85-14.35 41.6-14.1L41.6-14.1Q41.6-17.1 40.75-18.2 39.9-19.3 37.8-19.3 35.7-19.3 32.9-18.8 30.1-18.3 28.6-17.8L28.6-17.8 27.65-22.55Q32.9-24.15 37.9-24.15 42.9-24.15 44.82-21.95 46.75-19.75 46.75-14.5L46.75-14.5 46.75-4.35 47.3 0.05 42.15 0.55 41.65-1.75Q37.45 0.55 35 0.55ZM57.9-19.15L54.05-19.15 54.05-23.75 63.05-23.75 63.15-21.35Q64.75-22.25 67.32-23.08 69.9-23.9 72.09-24.15L72.09-24.15 72.09-19.15Q70.15-18.95 67.45-18.1 64.75-17.25 63.15-16.35L63.15-16.35 63.15-4.5 70.45-4.5 70.45 0 54.05 0 54.05-4.6 57.9-4.6 57.9-19.15ZM92.69-33.35L97.79-33.35 97.79-4.15 98.29 0 93.24 0.5 92.79-1.8Q89.54 0.55 86.44 0.55L86.44 0.55Q81.79 0.55 79.44-2.18 77.09-4.9 77.09-11.4 77.09-17.9 79.94-21.03 82.79-24.15 87.34-24.15L87.34-24.15Q89.99-24.15 92.69-23L92.69-23 92.69-33.35ZM86.79-4.25L86.79-4.25Q89.44-4.25 92.69-6.95L92.69-6.95 92.69-18.1Q90.09-19.35 87.59-19.35L87.59-19.35Q82.64-19.35 82.64-11.4L82.64-11.4Q82.64-4.25 86.79-4.25ZM102.44-11.85Q102.44-17.9 105.14-21.03 107.84-24.15 112.64-24.15 117.44-24.15 120.07-21.33 122.69-18.5 122.79-13.05L122.79-13.05 122.59-9.35 107.99-9.35Q108.44-3.95 113.39-3.95L113.39-3.95Q116.84-3.95 120.69-5.2L120.69-5.2 121.74-0.85Q120.14-0.3 117.59 0.13 115.04 0.55 113.39 0.55L113.39 0.55Q102.44 0.55 102.44-11.85L102.44-11.85ZM112.84-19.5L112.84-19.5Q110.49-19.5 109.32-18.13 108.14-16.75 107.99-13.55L107.99-13.55 117.24-13.55Q117.24-19.5 112.84-19.5ZM127.79-23.75L132.79-23.75 132.89-22.3Q136.94-24.15 139.24-24.15L139.24-24.15Q143.29-24.15 145.21-21.78 147.14-19.4 147.14-14.35L147.14-14.35 147.14 0 141.99 0 141.99-14.2Q141.99-16.6 141.14-17.95 140.29-19.3 138.49-19.3 136.69-19.3 132.94-17.55L132.94-17.55 132.94 0 127.79 0 127.79-23.75ZM181.83 0L176.58 0 176.58-32.75 181.83-32.75 181.83-18.65 193.18-18.65 193.18-32.75 198.43-32.75 198.43 0 193.18 0 193.18-13.95 181.83-13.95 181.83 0ZM202.43-11.85Q202.43-17.9 205.13-21.03 207.83-24.15 212.63-24.15 217.43-24.15 220.06-21.33 222.68-18.5 222.78-13.05L222.78-13.05 222.58-9.35 207.98-9.35Q208.43-3.95 213.38-3.95L213.38-3.95Q216.83-3.95 220.68-5.2L220.68-5.2 221.73-0.85Q220.13-0.3 217.58 0.13 215.03 0.55 213.38 0.55L213.38 0.55Q202.43 0.55 202.43-11.85L202.43-11.85ZM212.83-19.5L212.83-19.5Q210.48-19.5 209.31-18.13 208.13-16.75 207.98-13.55L207.98-13.55 217.23-13.55Q217.23-19.5 212.83-19.5ZM232.88-19.15L229.03-19.15 229.03-23.75 238.03-23.75 238.13-21.35Q239.73-22.25 242.3-23.08 244.88-23.9 247.08-24.15L247.08-24.15 247.08-19.15Q245.13-18.95 242.43-18.1 239.73-17.25 238.13-16.35L238.13-16.35 238.13-4.5 245.43-4.5 245.43 0 229.03 0 229.03-4.6 232.88-4.6 232.88-19.15ZM254.63-21.13Q257.18-24.15 262.48-24.15 267.78-24.15 270.33-21.13 272.88-18.1 272.88-11.8 272.88-5.5 270.33-2.43 267.78 0.65 262.48 0.65 257.18 0.65 254.63-2.43 252.08-5.5 252.08-11.8 252.08-18.1 254.63-21.13ZM258.65-17.55Q257.63-15.8 257.63-11.8 257.63-7.8 258.68-6 259.73-4.2 262.48-4.2 265.23-4.2 266.28-6 267.33-7.8 267.33-11.8 267.33-15.8 266.3-17.55 265.28-19.3 262.48-19.3 259.68-19.3 258.65-17.55Z" opacity="1" transform="matrix(1,0,0,1,0,0)" fill="#31c48d" class="wordmark-text-0" data-fill-palette-color="primary" id="text-0"></path></svg></g></svg></g></svg></g></svg></g><g transform="matrix(1,0,0,1,133.9939338605169,0)"><svg viewBox="0 0 127.53213227896619 102.56453509933777" height="102.56453509933777" width="127.53213227896619"><g><svg xmlns="http://www.w3.org/2000/svg" xmlns:xlink="http://www.w3.org/1999/xlink" version="1.1" x="0" y="0" viewBox="4.997989654541016 13.807999610900879 90.00201416015625 72.38187408447266" enable-background="new 0 0 100 100" xml:space="preserve" height="102.56453509933777" width="127.53213227896619" class="icon-icon-0" data-fill-palette-color="accent" id="icon-0"><g fill="#31c48d" data-fill-palette-color="accent"><path d="M42.406 43.972c3.484 0 6.959-1.28 9.688-3.807 0.165-0.104 0.323-0.223 0.466-0.367 0.848-0.848 1.975-1.314 3.174-1.314s2.326 0.467 3.174 1.315c0.518 0.519 1.198 0.777 1.877 0.777s1.359-0.259 1.877-0.777c1.036-1.036 1.036-2.718 0-3.754-1.851-1.85-4.312-2.87-6.929-2.87-2.435 0-4.728 0.892-6.527 2.506-0.163 0.103-0.319 0.221-0.462 0.364-3.497 3.496-9.184 3.495-12.679 0-4.045-4.045-9.424-6.273-15.145-6.273-5.721 0-11.1 2.228-15.145 6.273-1.036 1.037-1.036 2.718 0 3.754 1.038 1.037 2.718 1.037 3.754 0 3.042-3.043 7.087-4.718 11.39-4.718 4.302 0 8.348 1.676 11.39 4.718C35.096 42.581 38.75 43.972 42.406 43.972z" fill="#31c48d" data-fill-palette-color="accent"></path><circle cx="77.789" cy="34.771" r="7.1" fill="#31c48d" data-fill-palette-color="accent"></circle><path d="M94.223 14.585c-1.036-1.036-2.717-1.036-3.753 0l0 0-6.33 6.33c-1.036 1.036-1.037 2.717-0.001 3.753 1.037 1.037 2.718 1.037 3.754 0 0 0 0 0 0 0l0.001 0 6.329-6.329 0 0 0 0C95.259 17.303 95.259 15.622 94.223 14.585z" fill="#31c48d" data-fill-palette-color="accent"></path><path d="M88.021 39.813c-0.003 0.004-4.647 4.647-4.647 4.647l-4.297 4.298c-1.023 1.022-2.668 1.03-3.708 0.037l-7.68-7.679-0.004 0.004 0 0c-1.036-1.036-2.716-1.036-3.753 0.001-0.075 0.075-0.132 0.159-0.196 0.24l-0.022-0.022L24.902 80.152l0.02 0.02c-0.075 0.06-0.153 0.113-0.222 0.182-1.036 1.037-1.036 2.717 0 3.753 1.036 1.036 2.717 1.037 3.754 0.001 0.07-0.07 0.123-0.149 0.183-0.224l0.02 0.02 20.698-20.698 5.801 5.801c0.993 1.04 0.985 2.686-0.037 3.708l-4.298 4.296c0 0-4.642 4.644-4.647 4.647-1.036 1.037-1.036 2.717 0 3.754 1.037 1.037 2.718 1.037 3.755 0.001 0.003-0.004 9.523-9.524 9.523-9.524l-0.001-0.001c2.79-2.79 2.789-7.314-0.001-10.103-0.042-0.042-0.087-0.078-0.129-0.118l0.002-0.001-6.215-6.215 12.707-12.707 6.215 6.215 0.001 0c0.04 0.042 0.077 0.087 0.119 0.128 2.79 2.79 7.313 2.79 10.103 0.001 0 0 0 0-0.001-0.001l0.002 0.001c0 0 9.52-9.52 9.523-9.523 1.036-1.036 1.036-2.718 0-3.754C90.739 38.776 89.058 38.775 88.021 39.813z" fill="#31c48d" data-fill-palette-color="accent"></path></g></svg></g></svg></g><g></g></svg></g></svg></g></svg></g></svg></g><defs></defs></svg><rect width="395.52" height="247.2" fill="none" stroke="none" visibility="hidden"></rect></g></svg></g></svg>